<svg aria-hidden="true" style="position: absolute; width: 0; height: 0; overflow: hidden;" version="1.1" xmlns="http://www.w3.org/2000/svg" xmlns:xlink="http://www.w3.org/1999/xlink">
<defs>
<symbol id="icon-logo-header" viewBox="0 0 88 32">
<path fill="#111518" style="fill: var(--color1, #111518)" d="M12.345 4.848v12.975h-3.67v-5.060h-5.005v5.060h-3.67v-12.975h3.67v4.875h5.005v-4.875h3.67z"></path>
<path fill="#111518" style="fill: var(--color1, #111518)" d="M25.777 12.818c0 0.025-0.019 0.315-0.056 0.871h-7.303c0.148 0.519 0.433 0.921 0.853 1.205 0.433 0.272 0.97 0.408 1.613 0.408 0.482 0 0.896-0.068 1.242-0.204 0.358-0.136 0.717-0.358 1.075-0.667l1.854 1.928c-0.976 1.087-2.403 1.631-4.282 1.631-1.174 0-2.206-0.222-3.096-0.667s-1.582-1.063-2.076-1.854c-0.482-0.791-0.723-1.687-0.723-2.688 0-0.989 0.235-1.872 0.704-2.651 0.482-0.791 1.143-1.409 1.983-1.854s1.786-0.667 2.836-0.667c1.001 0 1.909 0.21 2.725 0.63 0.816 0.408 1.458 1.007 1.928 1.798 0.482 0.778 0.723 1.705 0.723 2.78zM20.42 10.112c-0.544 0-1.001 0.154-1.372 0.463-0.358 0.309-0.587 0.729-0.686 1.26h4.115c-0.099-0.531-0.334-0.951-0.704-1.26-0.358-0.309-0.809-0.463-1.353-0.463z"></path>
<path fill="#111518" style="fill: var(--color1, #111518)" d="M28.142 4.069h3.522v13.753h-3.522v-13.753z"></path>
<path fill="#111518" style="fill: var(--color1, #111518)" d="M34.694 4.069h3.522v13.753h-3.522v-13.753z"></path>
<path fill="#111518" style="fill: var(--color1, #111518)" d="M3.328 29.8h-1.854l-0.354 0.855h-0.947l1.779-3.992h0.913l1.785 3.992h-0.97l-0.354-0.855zM3.037 29.098l-0.633-1.528-0.633 1.528h1.266z"></path>
<path fill="#111518" style="fill: var(--color1, #111518)" d="M10.358 29.902v1.58h-0.855v-0.827h-2.817v0.827h-0.856l0.006-1.58h0.16c0.24-0.008 0.409-0.183 0.508-0.525s0.16-0.831 0.183-1.466l0.046-1.249h3.068v3.239h0.559zM7.501 27.997c-0.019 0.475-0.059 0.874-0.12 1.198-0.061 0.319-0.154 0.555-0.279 0.707h1.785v-2.487h-1.369l-0.017 0.582z"></path>
<path fill="#111518" style="fill: var(--color1, #111518)" d="M13.895 30.724c-0.407 0-0.776-0.087-1.106-0.262-0.327-0.179-0.585-0.424-0.776-0.736-0.186-0.316-0.28-0.671-0.28-1.066s0.093-0.749 0.28-1.061c0.19-0.316 0.449-0.561 0.776-0.736 0.331-0.179 0.702-0.268 1.112-0.268 0.346 0 0.658 0.061 0.935 0.183 0.281 0.122 0.517 0.297 0.707 0.525l-0.593 0.548c-0.27-0.312-0.604-0.468-1.004-0.468-0.247 0-0.468 0.055-0.662 0.165-0.194 0.106-0.346 0.257-0.456 0.451-0.106 0.194-0.16 0.414-0.16 0.662s0.053 0.468 0.16 0.662c0.11 0.194 0.262 0.346 0.456 0.456 0.194 0.106 0.414 0.16 0.662 0.16 0.399 0 0.734-0.158 1.004-0.473l0.593 0.548c-0.19 0.232-0.426 0.409-0.707 0.53s-0.595 0.183-0.941 0.183z"></path>
<path fill="#111518" style="fill: var(--color1, #111518)" d="M18.717 29.047h-0.639v1.608h-0.918v-3.992h0.918v1.614h0.662l1.049-1.614h0.975l-1.306 1.928 1.346 2.065h-1.049l-1.038-1.608z"></path>
<path fill="#111518" style="fill: var(--color1, #111518)" d="M22.264 26.663h0.918v2.601l1.905-2.601h0.867v3.992h-0.913v-2.595l-1.905 2.595h-0.873v-3.992z"></path>
<path fill="#111518" style="fill: var(--color1, #111518)" d="M27.975 26.663h0.918v2.601l1.905-2.601h0.867v3.992h-0.913v-2.595l-1.905 2.595h-0.873v-3.992zM29.817 26.406c-0.73 0-1.099-0.291-1.106-0.873h0.633c0.008 0.278 0.165 0.416 0.473 0.416 0.152 0 0.268-0.034 0.348-0.103 0.080-0.072 0.122-0.177 0.126-0.314h0.633c-0.004 0.285-0.097 0.502-0.279 0.65s-0.458 0.222-0.827 0.222z"></path>
<path fill="#111518" style="fill: var(--color1, #111518)" d="M39.031 29.8h-1.854l-0.354 0.855h-0.947l1.779-3.992h0.912l1.785 3.992h-0.969l-0.354-0.855zM38.74 29.098l-0.633-1.528-0.633 1.528h1.266z"></path>
<path fill="#111518" style="fill: var(--color1, #111518)" d="M45.571 26.663v3.992h-0.924v-1.637h-1.814v1.637h-0.924v-3.992h0.924v1.574h1.814v-1.574h0.924z"></path>
<path fill="#111518" style="fill: var(--color1, #111518)" d="M50.41 27.416h-1.899l0.006 3.239h-0.918v-3.992h2.817l-0.006 0.753z"></path>
<path fill="#111518" style="fill: var(--color1, #111518)" d="M55.069 26.663v3.992h-0.913v-3.239h-1.369l-0.028 0.833c-0.019 0.567-0.065 1.027-0.137 1.38-0.072 0.35-0.194 0.62-0.365 0.81-0.167 0.186-0.403 0.279-0.707 0.279-0.125 0-0.278-0.021-0.456-0.063l0.057-0.781c0.049 0.015 0.105 0.023 0.165 0.023 0.221 0 0.374-0.129 0.462-0.388 0.087-0.262 0.143-0.671 0.165-1.226l0.057-1.62h3.068z"></path>
<path fill="#111518" style="fill: var(--color1, #111518)" d="M57.092 26.663h0.918v2.601l1.905-2.601h0.867v3.992h-0.913v-2.595l-1.905 2.595h-0.873v-3.992z"></path>
<path fill="#111518" style="fill: var(--color1, #111518)" d="M62.803 26.663h0.918v2.601l1.905-2.601h0.867v3.992h-0.913v-2.595l-1.905 2.595h-0.873v-3.992zM64.645 26.406c-0.73 0-1.099-0.291-1.107-0.873h0.633c0.007 0.278 0.165 0.416 0.473 0.416 0.152 0 0.268-0.034 0.348-0.103 0.080-0.072 0.122-0.177 0.125-0.314h0.633c-0.004 0.285-0.097 0.502-0.279 0.65s-0.458 0.222-0.827 0.222z"></path>
<path fill="#111518" style="fill: var(--color1, #111518)" d="M70.401 30.724c-0.407 0-0.776-0.087-1.106-0.262-0.327-0.179-0.586-0.424-0.776-0.736-0.186-0.316-0.279-0.671-0.279-1.066s0.093-0.749 0.279-1.061c0.19-0.316 0.449-0.561 0.776-0.736 0.331-0.179 0.701-0.268 1.112-0.268 0.346 0 0.658 0.061 0.935 0.183 0.281 0.122 0.517 0.297 0.707 0.525l-0.593 0.548c-0.27-0.312-0.605-0.468-1.004-0.468-0.247 0-0.468 0.055-0.662 0.165-0.194 0.106-0.346 0.257-0.456 0.451-0.106 0.194-0.16 0.414-0.16 0.662s0.053 0.468 0.16 0.662c0.11 0.194 0.262 0.346 0.456 0.456 0.194 0.106 0.414 0.16 0.662 0.16 0.399 0 0.734-0.158 1.004-0.473l0.593 0.548c-0.19 0.232-0.426 0.409-0.707 0.53s-0.595 0.183-0.941 0.183z"></path>
<path fill="#111518" style="fill: var(--color1, #111518)" d="M75.224 29.047h-0.639v1.608h-0.918v-3.992h0.918v1.614h0.662l1.049-1.614h0.975l-1.306 1.928 1.346 2.065h-1.049l-1.038-1.608z"></path>
<path fill="#111518" style="fill: var(--color1, #111518)" d="M78.771 26.663h0.918v2.601l1.905-2.601h0.867v3.992h-0.913v-2.595l-1.905 2.595h-0.873v-3.992z"></path>
<path fill="#111518" style="fill: var(--color1, #111518)" d="M84.481 26.663h0.918v2.601l1.905-2.601h0.867v3.992h-0.913v-2.595l-1.905 2.595h-0.873v-3.992zM86.324 26.406c-0.73 0-1.099-0.291-1.106-0.873h0.633c0.008 0.278 0.165 0.416 0.473 0.416 0.152 0 0.268-0.034 0.348-0.103 0.080-0.072 0.122-0.177 0.125-0.314h0.633c-0.004 0.285-0.097 0.502-0.279 0.65s-0.458 0.222-0.827 0.222z"></path>
<path fill="#111518" style="fill: var(--color1, #111518)" d="M73.153 14.987v2.836h-10.417v-12.975h10.176v2.836h-6.543v2.187h5.765v2.743h-5.765v2.373h6.784z"></path>
<path fill="#111518" style="fill: var(--color1, #111518)" d="M88.276 4.848v12.975h-3.021l-5.728-6.914v6.914h-3.596v-12.975h3.021l5.728 6.914v-6.914h3.596z"></path>
<path fill="#ff6b09" style="fill: var(--color2, #ff6b09)" d="M57.546 11.090c-0.189-0.424-0.451-0.842-0.833-1.325-0.964-1.212-1.258-3.915-1.261-3.94-0.013-0.13-0.105-0.237-0.225-0.275-0.124-0.039-0.258-0.003-0.346 0.094-1.15 1.286-0.667 3.273-0.405 4.067 0.072 0.217 0.15 0.473 0.206 0.732 0.425 2.097-0.395 3.046-0.588 3.237-0.186 0.052-0.314 0.026-0.431-0.101-0.405-0.444-0.539-1.899-0.35-3.795 0.039-0.386 0.029-0.732-0.026-1.056-0.4-2.33-1.865-3.825-2.238-4.349-1.026-1.517-1.131-4.041-1.134-4.064-0.003-0.12-0.072-0.227-0.18-0.279-0.105-0.052-0.232-0.045-0.33 0.023-1.712 1.163-1.565 3.966-1.327 5.532 0.056 0.363 0.163 0.732 0.35 1.199 0.663 1.669-0.131 3.824-0.137 3.843s-0.013 0.036-0.016 0.055c-0.101 0.531-0.271 0.849-0.461 0.849-0.020 0-0.039-0.003-0.062-0.010-0.232-0.049-0.353-0.295-0.356-0.509-0.013-2.764-2.787-3.694-2.817-3.704-0.124-0.039-0.261-0.003-0.346 0.097-0.088 0.1-0.105 0.24-0.046 0.356 0.033 0.068 0.137 0.366 0.065 1.419-0.062 0.946-0.235 1.883-0.513 2.78-0.66 2.152-0.555 4.19-0.549 4.287 0.507 5.519 8.444 6.486 13.155 3.377 0.516-0.34 0.938-0.729 1.248-1.157 1.738-2.398 0.716-5.655-0.046-7.385zM45.472 16.362c0.010 0.178-0.127 0.33-0.307 0.34h-0.020c-0.173 0-0.317-0.133-0.327-0.305-0.029-0.473-0.023-0.969 0.013-1.507 0.013-0.178 0.17-0.311 0.35-0.301 0.18 0.013 0.317 0.168 0.304 0.347-0.036 0.512-0.042 0.979-0.013 1.426zM45.632 13.491c-0.020 0.165-0.16 0.285-0.323 0.285-0.013 0-0.026 0-0.042-0.003-0.176-0.023-0.304-0.181-0.284-0.36l0.157-1.251c0.023-0.175 0.183-0.301 0.366-0.282 0.18 0.023 0.307 0.185 0.284 0.363l-0.157 1.248z"></path>
<path fill="#ff6b09" style="fill: var(--color2, #ff6b09)" d="M55.335 4.433c-0.178-0.027-0.3-0.193-0.273-0.369 0.020-0.132 0.138-0.806 0.459-1.145 0.123-0.131 0.33-0.138 0.462-0.015s0.138 0.327 0.015 0.458c-0.136 0.144-0.251 0.554-0.29 0.8-0.028 0.175-0.192 0.298-0.373 0.271z"></path>
<path fill="#ff6b09" style="fill: var(--color2, #ff6b09)" d="M43.423 6.048c-0.063-0.241-0.218-0.638-0.367-0.768-0.136-0.118-0.149-0.323-0.030-0.457s0.325-0.149 0.461-0.030c0.352 0.306 0.536 0.966 0.569 1.094 0.045 0.173-0.061 0.35-0.235 0.394-0.178 0.045-0.353-0.063-0.398-0.233z"></path>
</symbol>
<symbol id="icon-logo-menu" viewBox="0 0 88 32">
<path fill="#fff" style="fill: var(--color3, #fff)" d="M12.345 4.848v12.975h-3.67v-5.060h-5.005v5.060h-3.67v-12.975h3.67v4.875h5.005v-4.875h3.67z"></path>
<path fill="#fff" style="fill: var(--color3, #fff)" d="M25.777 12.818c0 0.025-0.019 0.315-0.056 0.871h-7.303c0.148 0.519 0.433 0.921 0.853 1.205 0.433 0.272 0.97 0.408 1.613 0.408 0.482 0 0.896-0.068 1.242-0.204 0.358-0.136 0.717-0.358 1.075-0.667l1.854 1.928c-0.976 1.087-2.403 1.631-4.282 1.631-1.174 0-2.206-0.222-3.096-0.667s-1.582-1.063-2.076-1.854c-0.482-0.791-0.723-1.687-0.723-2.688 0-0.989 0.235-1.872 0.704-2.651 0.482-0.791 1.143-1.409 1.983-1.854s1.786-0.667 2.836-0.667c1.001 0 1.909 0.21 2.725 0.63 0.816 0.408 1.458 1.007 1.928 1.798 0.482 0.778 0.723 1.705 0.723 2.78zM20.42 10.112c-0.544 0-1.001 0.154-1.372 0.463-0.358 0.309-0.587 0.729-0.686 1.26h4.115c-0.099-0.531-0.334-0.951-0.704-1.26-0.358-0.309-0.809-0.463-1.353-0.463z"></path>
<path fill="#fff" style="fill: var(--color3, #fff)" d="M28.142 4.069h3.522v13.753h-3.522v-13.753z"></path>
<path fill="#fff" style="fill: var(--color3, #fff)" d="M34.694 4.069h3.522v13.753h-3.522v-13.753z"></path>
<path fill="#fff" style="fill: var(--color3, #fff)" d="M3.328 29.8h-1.854l-0.354 0.855h-0.947l1.779-3.992h0.913l1.785 3.992h-0.97l-0.354-0.855zM3.037 29.098l-0.633-1.528-0.633 1.528h1.266z"></path>
<path fill="#fff" style="fill: var(--color3, #fff)" d="M10.358 29.902v1.58h-0.855v-0.827h-2.817v0.827h-0.856l0.006-1.58h0.16c0.24-0.008 0.409-0.183 0.508-0.525s0.16-0.831 0.183-1.466l0.046-1.249h3.068v3.239h0.559zM7.501 27.997c-0.019 0.475-0.059 0.874-0.12 1.198-0.061 0.319-0.154 0.555-0.279 0.707h1.785v-2.487h-1.369l-0.017 0.582z"></path>
<path fill="#fff" style="fill: var(--color3, #fff)" d="M13.895 30.724c-0.407 0-0.776-0.087-1.106-0.262-0.327-0.179-0.585-0.424-0.776-0.736-0.186-0.316-0.28-0.671-0.28-1.066s0.093-0.749 0.28-1.061c0.19-0.316 0.449-0.561 0.776-0.736 0.331-0.179 0.702-0.268 1.112-0.268 0.346 0 0.658 0.061 0.935 0.183 0.281 0.122 0.517 0.297 0.707 0.525l-0.593 0.548c-0.27-0.312-0.604-0.468-1.004-0.468-0.247 0-0.468 0.055-0.662 0.165-0.194 0.106-0.346 0.257-0.456 0.451-0.106 0.194-0.16 0.414-0.16 0.662s0.053 0.468 0.16 0.662c0.11 0.194 0.262 0.346 0.456 0.456 0.194 0.106 0.414 0.16 0.662 0.16 0.399 0 0.734-0.158 1.004-0.473l0.593 0.548c-0.19 0.232-0.426 0.409-0.707 0.53s-0.595 0.183-0.941 0.183z"></path>
<path fill="#fff" style="fill: var(--color3, #fff)" d="M18.717 29.047h-0.639v1.608h-0.918v-3.992h0.918v1.614h0.662l1.049-1.614h0.975l-1.306 1.928 1.346 2.065h-1.049l-1.038-1.608z"></path>
<path fill="#fff" style="fill: var(--color3, #fff)" d="M22.264 26.663h0.918v2.601l1.905-2.601h0.867v3.992h-0.913v-2.595l-1.905 2.595h-0.873v-3.992z"></path>
<path fill="#fff" style="fill: var(--color3, #fff)" d="M27.975 26.663h0.918v2.601l1.905-2.601h0.867v3.992h-0.913v-2.595l-1.905 2.595h-0.873v-3.992zM29.817 26.406c-0.73 0-1.099-0.291-1.106-0.873h0.633c0.008 0.278 0.165 0.416 0.473 0.416 0.152 0 0.268-0.034 0.348-0.103 0.080-0.072 0.122-0.177 0.126-0.314h0.633c-0.004 0.285-0.097 0.502-0.279 0.65s-0.458 0.222-0.827 0.222z"></path>
<path fill="#fff" style="fill: var(--color3, #fff)" d="M39.031 29.8h-1.854l-0.354 0.855h-0.947l1.779-3.992h0.912l1.785 3.992h-0.969l-0.354-0.855zM38.74 29.098l-0.633-1.528-0.633 1.528h1.266z"></path>
<path fill="#fff" style="fill: var(--color3, #fff)" d="M45.571 26.663v3.992h-0.924v-1.637h-1.814v1.637h-0.924v-3.992h0.924v1.574h1.814v-1.574h0.924z"></path>
<path fill="#fff" style="fill: var(--color3, #fff)" d="M50.41 27.416h-1.899l0.006 3.239h-0.918v-3.992h2.817l-0.006 0.753z"></path>
<path fill="#fff" style="fill: var(--color3, #fff)" d="M55.069 26.663v3.992h-0.913v-3.239h-1.369l-0.028 0.833c-0.019 0.567-0.065 1.027-0.137 1.38-0.072 0.35-0.194 0.62-0.365 0.81-0.167 0.186-0.403 0.279-0.707 0.279-0.125 0-0.278-0.021-0.456-0.063l0.057-0.781c0.049 0.015 0.105 0.023 0.165 0.023 0.221 0 0.374-0.129 0.462-0.388 0.087-0.262 0.143-0.671 0.165-1.226l0.057-1.62h3.068z"></path>
<path fill="#fff" style="fill: var(--color3, #fff)" d="M57.092 26.663h0.918v2.601l1.905-2.601h0.867v3.992h-0.913v-2.595l-1.905 2.595h-0.873v-3.992z"></path>
<path fill="#fff" style="fill: var(--color3, #fff)" d="M62.803 26.663h0.918v2.601l1.905-2.601h0.867v3.992h-0.913v-2.595l-1.905 2.595h-0.873v-3.992zM64.645 26.406c-0.73 0-1.099-0.291-1.107-0.873h0.633c0.007 0.278 0.165 0.416 0.473 0.416 0.152 0 0.268-0.034 0.348-0.103 0.080-0.072 0.122-0.177 0.125-0.314h0.633c-0.004 0.285-0.097 0.502-0.279 0.65s-0.458 0.222-0.827 0.222z"></path>
<path fill="#fff" style="fill: var(--color3, #fff)" d="M70.401 30.724c-0.407 0-0.776-0.087-1.106-0.262-0.327-0.179-0.586-0.424-0.776-0.736-0.186-0.316-0.279-0.671-0.279-1.066s0.093-0.749 0.279-1.061c0.19-0.316 0.449-0.561 0.776-0.736 0.331-0.179 0.701-0.268 1.112-0.268 0.346 0 0.658 0.061 0.935 0.183 0.281 0.122 0.517 0.297 0.707 0.525l-0.593 0.548c-0.27-0.312-0.605-0.468-1.004-0.468-0.247 0-0.468 0.055-0.662 0.165-0.194 0.106-0.346 0.257-0.456 0.451-0.106 0.194-0.16 0.414-0.16 0.662s0.053 0.468 0.16 0.662c0.11 0.194 0.262 0.346 0.456 0.456 0.194 0.106 0.414 0.16 0.662 0.16 0.399 0 0.734-0.158 1.004-0.473l0.593 0.548c-0.19 0.232-0.426 0.409-0.707 0.53s-0.595 0.183-0.941 0.183z"></path>
<path fill="#fff" style="fill: var(--color3, #fff)" d="M75.224 29.047h-0.639v1.608h-0.918v-3.992h0.918v1.614h0.662l1.049-1.614h0.975l-1.306 1.928 1.346 2.065h-1.049l-1.038-1.608z"></path>
<path fill="#fff" style="fill: var(--color3, #fff)" d="M78.771 26.663h0.918v2.601l1.905-2.601h0.867v3.992h-0.913v-2.595l-1.905 2.595h-0.873v-3.992z"></path>
<path fill="#fff" style="fill: var(--color3, #fff)" d="M84.481 26.663h0.918v2.601l1.905-2.601h0.867v3.992h-0.913v-2.595l-1.905 2.595h-0.873v-3.992zM86.324 26.406c-0.73 0-1.099-0.291-1.106-0.873h0.633c0.008 0.278 0.165 0.416 0.473 0.416 0.152 0 0.268-0.034 0.348-0.103 0.080-0.072 0.122-0.177 0.125-0.314h0.633c-0.004 0.285-0.097 0.502-0.279 0.65s-0.458 0.222-0.827 0.222z"></path>
<path fill="#fff" style="fill: var(--color3, #fff)" d="M73.153 14.987v2.836h-10.417v-12.975h10.176v2.836h-6.543v2.187h5.765v2.743h-5.765v2.373h6.784z"></path>
<path fill="#fff" style="fill: var(--color3, #fff)" d="M88.276 4.848v12.975h-3.021l-5.728-6.914v6.914h-3.596v-12.975h3.021l5.728 6.914v-6.914h3.596z"></path>
<path fill="#ff6b09" style="fill: var(--color2, #ff6b09)" d="M57.546 11.090c-0.189-0.424-0.451-0.842-0.833-1.325-0.964-1.212-1.258-3.915-1.261-3.94-0.013-0.13-0.105-0.237-0.225-0.275-0.124-0.039-0.258-0.003-0.346 0.094-1.15 1.286-0.667 3.273-0.405 4.067 0.072 0.217 0.15 0.473 0.206 0.732 0.425 2.097-0.395 3.046-0.588 3.237-0.186 0.052-0.314 0.026-0.431-0.101-0.405-0.444-0.539-1.899-0.35-3.795 0.039-0.386 0.029-0.732-0.026-1.056-0.4-2.33-1.865-3.825-2.238-4.349-1.026-1.517-1.131-4.041-1.134-4.064-0.003-0.12-0.072-0.227-0.18-0.279-0.105-0.052-0.232-0.045-0.33 0.023-1.712 1.163-1.565 3.966-1.327 5.532 0.056 0.363 0.163 0.732 0.35 1.199 0.663 1.669-0.131 3.824-0.137 3.843s-0.013 0.036-0.016 0.055c-0.101 0.531-0.271 0.849-0.461 0.849-0.020 0-0.039-0.003-0.062-0.010-0.232-0.049-0.353-0.295-0.356-0.509-0.013-2.764-2.787-3.694-2.817-3.704-0.124-0.039-0.261-0.003-0.346 0.097-0.088 0.1-0.105 0.24-0.046 0.356 0.033 0.068 0.137 0.366 0.065 1.419-0.062 0.946-0.235 1.883-0.513 2.78-0.66 2.152-0.555 4.19-0.549 4.287 0.507 5.519 8.444 6.486 13.155 3.377 0.516-0.34 0.938-0.729 1.248-1.157 1.738-2.398 0.716-5.655-0.046-7.385zM45.472 16.362c0.010 0.178-0.127 0.33-0.307 0.34h-0.020c-0.173 0-0.317-0.133-0.327-0.305-0.029-0.473-0.023-0.969 0.013-1.507 0.013-0.178 0.17-0.311 0.35-0.301 0.18 0.013 0.317 0.168 0.304 0.347-0.036 0.512-0.042 0.979-0.013 1.426zM45.632 13.491c-0.020 0.165-0.16 0.285-0.323 0.285-0.013 0-0.026 0-0.042-0.003-0.176-0.023-0.304-0.181-0.284-0.36l0.157-1.251c0.023-0.175 0.183-0.301 0.366-0.282 0.18 0.023 0.307 0.185 0.284 0.363l-0.157 1.248z"></path>
<path fill="#ff6b09" style="fill: var(--color2, #ff6b09)" d="M55.335 4.433c-0.178-0.027-0.3-0.193-0.273-0.369 0.020-0.132 0.138-0.806 0.459-1.145 0.123-0.131 0.33-0.138 0.462-0.015s0.138 0.327 0.015 0.458c-0.136 0.144-0.251 0.554-0.29 0.8-0.028 0.175-0.192 0.298-0.373 0.271z"></path>
<path fill="#ff6b09" style="fill: var(--color2, #ff6b09)" d="M43.423 6.048c-0.063-0.241-0.218-0.638-0.367-0.768-0.136-0.118-0.149-0.323-0.030-0.457s0.325-0.149 0.461-0.030c0.352 0.306 0.536 0.966 0.569 1.094 0.045 0.173-0.061 0.35-0.235 0.394-0.178 0.045-0.353-0.063-0.398-0.233z"></path>
</symbol>
<symbol id="icon-curve" viewBox="0 0 40 32">
<path fill="#fff" style="fill: var(--color1, #fff)" d="M5.517 27.304c-2.336 0.247-4.003 1.646-5.517 1.858v-28.723h39.639v19.423c-1.117-0.263-5.493 4.134-7.982 5.020-3.662 0.6-1.42-2.328-9.989 1.822s-13.396 0.308-16.151 0.6z"></path>
</symbol>
<symbol id="icon-open-menu" viewBox="0 0 21 14">
<path d="M0 1H20.5" stroke="black" stroke-width="2"/>
<path d="M0 7H20.5" stroke="black" stroke-width="2"/>
<path d="M0 13H20.5" stroke="black" stroke-width="2"/>
</symbol>
<symbol id="icon-close-menu" viewBox="0 0 15 15">
<path d="M1 15.4957L15.4957 1.00004" stroke="white" stroke-width="2"/>
<path d="M15.4956 15.4957L0.999917 1.00004" stroke="white" stroke-width="2"/>
</symbol>
<symbol id="icon-fire" viewBox="0 0 23 32">
<path fill="#ff6b09" style="fill: var(--color2, #ff6b09)" d="M21.908 16.593c-0.284-0.635-0.675-1.261-1.247-1.983-1.442-1.813-1.882-5.857-1.887-5.896-0.020-0.194-0.156-0.354-0.337-0.412-0.186-0.058-0.386-0.005-0.518 0.141-1.721 1.925-0.997 4.897-0.606 6.085 0.108 0.325 0.225 0.708 0.308 1.096 0.636 3.137-0.592 4.558-0.88 4.844-0.279 0.078-0.469 0.039-0.645-0.15-0.606-0.664-0.807-2.841-0.523-5.678 0.059-0.577 0.044-1.096-0.039-1.581-0.598-3.486-2.791-5.722-3.349-6.507-1.535-2.269-1.692-6.046-1.696-6.080-0.005-0.179-0.108-0.339-0.269-0.417-0.156-0.078-0.347-0.068-0.494 0.034-2.562 1.741-2.342 5.935-1.985 8.276 0.083 0.543 0.244 1.096 0.523 1.794 0.992 2.497-0.196 5.721-0.205 5.75s-0.020 0.053-0.024 0.082c-0.152 0.795-0.406 1.27-0.689 1.27-0.029 0-0.059-0.005-0.093-0.015-0.347-0.073-0.528-0.441-0.533-0.761-0.020-4.136-4.17-5.527-4.214-5.542-0.186-0.058-0.391-0.005-0.518 0.145-0.132 0.15-0.156 0.359-0.068 0.533 0.049 0.102 0.205 0.548 0.098 2.124-0.093 1.416-0.352 2.817-0.768 4.16-0.988 3.219-0.831 6.269-0.821 6.415 0.759 8.257 12.635 9.704 19.683 5.052 0.772-0.509 1.403-1.091 1.868-1.731 2.601-3.588 1.071-8.461-0.068-11.050zM3.844 24.481c0.015 0.267-0.191 0.494-0.46 0.509h-0.029c-0.259 0-0.474-0.199-0.489-0.456-0.044-0.708-0.034-1.45 0.020-2.255 0.020-0.267 0.254-0.465 0.523-0.451 0.269 0.019 0.474 0.252 0.455 0.519-0.054 0.766-0.064 1.464-0.020 2.133zM4.084 20.186c-0.029 0.247-0.24 0.427-0.484 0.427-0.020 0-0.039 0-0.064-0.005-0.264-0.034-0.455-0.272-0.425-0.538l0.235-1.871c0.034-0.262 0.274-0.451 0.548-0.422 0.269 0.034 0.46 0.276 0.425 0.543l-0.235 1.867z"></path>
<path fill="#ff6b09" style="fill: var(--color2, #ff6b09)" d="M18.601 6.633c-0.267-0.041-0.449-0.288-0.408-0.553 0.030-0.197 0.207-1.205 0.686-1.713 0.185-0.196 0.493-0.206 0.691-0.022s0.207 0.49 0.022 0.685c-0.203 0.215-0.376 0.829-0.433 1.197-0.041 0.262-0.287 0.445-0.558 0.405z"></path>
<path fill="#ff6b09" style="fill: var(--color2, #ff6b09)" d="M0.778 9.048c-0.094-0.361-0.326-0.955-0.549-1.149-0.203-0.177-0.223-0.483-0.045-0.684s0.486-0.222 0.69-0.045c0.527 0.458 0.802 1.445 0.852 1.638 0.067 0.259-0.091 0.523-0.352 0.59-0.267 0.067-0.529-0.094-0.595-0.349z"></path>
</symbol>
</defs>
</svg>
