<svg width="22" height="30" fill="none" xmlns="http://www.w3.org/2000/svg"><path d="M20.54 15.556c-.267-.596-.633-1.182-1.17-1.86-1.352-1.7-1.764-5.49-1.769-5.527a.457.457 0 00-.316-.386.465.465 0 00-.486.132c-1.613 1.804-.935 4.59-.568 5.704.1.305.21.664.289 1.027.595 2.941-.555 4.273-.825 4.541-.262.073-.44.037-.605-.14-.569-.623-.757-2.664-.49-5.323a5.441 5.441 0 00-.037-1.482c-.561-3.268-2.617-5.365-3.14-6.1-1.44-2.127-1.586-5.668-1.59-5.7a.458.458 0 00-.715-.36c-2.402 1.633-2.196 5.564-1.861 7.76.078.509.229 1.027.49 1.682.93 2.34-.183 5.363-.192 5.39-.01.028-.019.05-.023.078-.142.745-.38 1.19-.647 1.19a.313.313 0 01-.087-.013c-.325-.068-.495-.413-.5-.713-.018-3.878-3.909-5.182-3.95-5.196a.456.456 0 00-.486.136.447.447 0 00-.064.5c.046.096.192.514.092 1.991a16.978 16.978 0 01-.72 3.9C.244 19.806.39 22.665.4 22.801c.712 7.741 11.845 9.098 18.452 4.736.725-.477 1.316-1.022 1.751-1.622 2.439-3.364 1.004-7.932-.064-10.36zM3.603 22.95a.454.454 0 01-.431.477h-.028a.456.456 0 01-.458-.427c-.041-.664-.032-1.36.018-2.114a.463.463 0 01.49-.422.458.458 0 01.427.486c-.05.718-.06 1.373-.018 2zm.224-4.027a.455.455 0 01-.453.4c-.019 0-.037 0-.06-.005a.458.458 0 01-.399-.504l.22-1.755a.463.463 0 01.514-.395c.252.032.43.259.398.509l-.22 1.75zM17.438 6.219a.455.455 0 01-.383-.518c.03-.185.195-1.13.644-1.606a.46.46 0 01.648-.02c.185.171.194.459.02.642-.19.201-.351.777-.406 1.122a.458.458 0 01-.523.38zM.73 8.483C.641 8.145.423 7.587.213 7.405a.452.452 0 01-.042-.641.46.46 0 01.647-.042c.494.429.752 1.354.798 1.535a.454.454 0 01-.33.553.46.46 0 01-.558-.327z" fill="#FF6B09"/></svg>