<svg width="16" height="21"  xmlns="http://www.w3.org/2000/svg"><g clip-path="url(#clip0)" ><path d="M14.839 10.576c-.181-.405-.43-.804-.794-1.264-.919-1.156-1.2-3.733-1.202-3.758a.311.311 0 00-.215-.263.316.316 0 00-.33.09c-1.096 1.227-.635 3.121-.386 3.878.068.208.143.452.196.699.405 2-.377 2.905-.56 3.087-.178.05-.3.025-.412-.096-.386-.423-.513-1.81-.333-3.618a3.698 3.698 0 00-.025-1.008c-.38-2.222-1.777-3.647-2.132-4.147C7.668 2.729 7.568.322 7.566.3A.31.31 0 007.08.056C5.447 1.166 5.587 3.84 5.814 5.332c.053.346.156.698.333 1.143.633 1.592-.124 3.647-.13 3.665-.007.019-.013.034-.016.053-.096.507-.258.81-.439.81a.212.212 0 01-.06-.01c-.22-.046-.335-.281-.338-.485-.013-2.636-2.656-3.523-2.684-3.532a.31.31 0 00-.33.092.304.304 0 00-.044.34c.031.065.13.35.062 1.354-.059.902-.224 1.795-.489 2.652a12.928 12.928 0 00-.523 4.088c.484 5.263 8.047 6.185 12.536 3.22a4.54 4.54 0 001.19-1.103c1.656-2.287.681-5.393-.044-7.043zM3.334 15.604a.309.309 0 01-.293.325h-.019a.31.31 0 01-.311-.291 11.15 11.15 0 01.012-1.437.311.311 0 01.623.043c-.034.489-.04.934-.012 1.36zm.152-2.738a.309.309 0 01-.308.272c-.012 0-.025 0-.04-.003a.312.312 0 01-.271-.343l.15-1.193a.314.314 0 01.348-.269.31.31 0 01.27.346l-.149 1.19zM12.68 4.225a.309.309 0 01-.26-.352c.019-.125.131-.768.436-1.09a.313.313 0 01.44-.015.307.307 0 01.015.437c-.13.137-.24.528-.276.762a.311.311 0 01-.356.258zM1.359 5.763c-.06-.23-.208-.608-.35-.732a.307.307 0 01-.028-.436.312.312 0 01.438-.028c.336.291.51.92.543 1.043a.312.312 0 01-.603.154z"/></g><defs><clipPath id="clip0"><path transform="translate(.883)" d="M0 0h14.946v20.381H0z"/></clipPath></defs></svg>