<svg width="40" height="40" fill="none" xmlns="http://www.w3.org/2000/svg"><g clip-path="url(#clip0)" fill="#fff"><path d="M7.429 15.149c.083-.589.147-1.18.253-1.764.6-3.309 2.942-5.56 6.291-5.675a172.25 172.25 0 0112.108 0c3.646.13 6.285 2.83 6.4 6.476a186.03 186.03 0 010 11.624c-.115 3.647-2.754 6.345-6.4 6.477-4.03.145-8.076.149-12.108-.002-3.645-.137-6.165-2.842-6.41-6.494-.02-.316-.088-.63-.134-.944V15.15zm12.574 14.977c1.845 0 3.692.055 5.535-.013 2.89-.107 4.666-1.831 4.734-4.718.083-3.596.083-7.197 0-10.794-.068-2.886-1.846-4.65-4.734-4.712a261.253 261.253 0 00-11 0c-2.866.06-4.648 1.789-4.726 4.643-.1 3.642-.1 7.29 0 10.932.078 2.854 1.86 4.543 4.726 4.649 1.82.068 3.643.013 5.465.013z"/><path d="M20 13.593a6.407 6.407 0 100 12.814 6.407 6.407 0 000-12.814zm0 10.608a4.2 4.2 0 110-8.402 4.2 4.2 0 010 8.402zM28.305 13.301a1.524 1.524 0 11-3.048 0 1.524 1.524 0 013.048 0z"/></g><defs><clipPath id="clip0"><path fill="#fff" d="M0 0h40v40H0z"/></clipPath></defs></svg>